<svg version="1.1" id="Layer_1" xmlns="http://www.w3.org/2000/svg" xmlns:xlink="http://www.w3.org/1999/xlink" x="0px" y="0px"
	 width="100%" viewBox="0 0 104 104" enable-background="new 0 0 104 104" xml:space="preserve">
<path fill="#EFFDF7" opacity="1.000000" stroke="none" 
	d="
M60.000000,105.000000 
	C40.000000,105.000000 20.500000,105.000000 1.000000,105.000000 
	C1.000000,70.333336 1.000000,35.666668 1.000000,1.000000 
	C35.666668,1.000000 70.333336,1.000000 105.000000,1.000000 
	C105.000000,35.666668 105.000000,70.333336 105.000000,105.000000 
	C90.166664,105.000000 75.333336,105.000000 60.000000,105.000000 
M48.774578,3.068644 
	C23.748840,5.671889 5.245238,23.680889 2.982890,47.636314 
	C0.764288,71.128532 15.272496,93.276039 37.857944,99.755592 
	C58.399223,105.648697 76.400757,100.443970 90.145706,84.141342 
	C103.495270,68.307671 105.821449,49.940079 96.888908,31.304213 
	C87.591301,11.906715 71.292244,2.661296 48.774578,3.068644 
z"/>
<path fill="#07AE61" opacity="1.000000" stroke="none" 
	d="
M49.234219,3.041370 
	C71.292244,2.661296 87.591301,11.906715 96.888908,31.304213 
	C105.821449,49.940079 103.495270,68.307671 90.145706,84.141342 
	C76.400757,100.443970 58.399223,105.648697 37.857944,99.755592 
	C15.272496,93.276039 0.764288,71.128532 2.982890,47.636314 
	C5.245238,23.680889 23.748840,5.671889 49.234219,3.041370 
M60.592442,65.093109 
	C64.765793,60.917316 68.939140,56.741520 72.222038,53.456703 
	C65.013985,46.092312 58.339348,39.272915 52.364738,33.168724 
	C45.932877,39.562260 39.158703,46.296066 32.961967,52.455879 
	C39.325516,58.837444 46.077343,65.608383 53.567825,73.120079 
	C55.527008,70.859947 57.809566,68.226761 60.592442,65.093109 
z"/>
<path fill="#EEFCF6" opacity="1.000000" stroke="none" 
	d="
M60.342285,65.343346 
	C57.809566,68.226761 55.527008,70.859947 53.567825,73.120079 
	C46.077343,65.608383 39.325516,58.837444 32.961967,52.455879 
	C39.158703,46.296066 45.932877,39.562260 52.364738,33.168724 
	C58.339348,39.272915 65.013985,46.092312 72.222038,53.456703 
	C68.939140,56.741520 64.765793,60.917316 60.342285,65.343346 
z"/>
</svg>